<svg xmlns="http://www.w3.org/2000/svg" xmlns:xlink="http://www.w3.org/1999/xlink" viewBox="-5 -6 34 34" width="512" height="512">
<defs>
<radialGradient id="wt-ring" cx="12.373921" cy="9.3486937" r="17.921562" gradientTransform="scale(0.96978151,1.0311601)" fx="12.373921" fy="9.3486937" gradientUnits="userSpaceOnUse"><stop offset="75%" stop-color="#1a1a2e"/><stop offset="100%" stop-color="#0a0a18"/></radialGradient>
<radialGradient id="wt-glosstop" cx="50%" cy="16%" r="48%"><stop offset="0%" stop-color="#ffffff" stop-opacity="0.24"/><stop offset="100%" stop-color="#ffffff" stop-opacity="0"/></radialGradient>
<radialGradient id="wt-gloss1" xlink:href="#wt-glosstop" cx="12" cy="5" r="10" gradientTransform="matrix(1.3673052,0,0,1.3673052,-4.4526776,-4.7886152)" gradientUnits="userSpaceOnUse"/>
<linearGradient id="wt-w" x1="9.5812317" y1="11.272037" x2="9.5812317" y2="24.047013" gradientTransform="matrix(1.7124795,0,0,1.0917057,-4.4526776,-4.7886152)" gradientUnits="userSpaceOnUse"><stop offset="0%" stop-color="#f0faff"/><stop offset="40%" stop-color="#7ecfff"/><stop offset="100%" stop-color="#2a8fcf"/></linearGradient>
<radialGradient id="wt-green" cx="12" cy="12" r="10" gradientUnits="userSpaceOnUse"><stop offset="0%" stop-color="#004000"/><stop offset="45%" stop-color="#007a00"/><stop offset="100%" stop-color="#2fb02f"/></radialGradient>
<radialGradient id="wt-cyan" cx="12" cy="12" r="10" gradientUnits="userSpaceOnUse"><stop offset="0%" stop-color="#00505a"/><stop offset="45%" stop-color="#009aa4"/><stop offset="100%" stop-color="#3ec2cc"/></radialGradient>
<radialGradient id="wt-blue" cx="12" cy="12" r="10" gradientUnits="userSpaceOnUse"><stop offset="0%" stop-color="#001a88"/><stop offset="45%" stop-color="#2050dd"/><stop offset="100%" stop-color="#4f74ee"/></radialGradient>
<radialGradient id="wt-purple" cx="12" cy="12" r="10" gradientUnits="userSpaceOnUse"><stop offset="0%" stop-color="#2c0840"/><stop offset="45%" stop-color="#5f1a94"/><stop offset="100%" stop-color="#9042cc"/></radialGradient>
<radialGradient id="wt-pink" cx="12" cy="12" r="10" gradientUnits="userSpaceOnUse"><stop offset="0%" stop-color="#6e0040"/><stop offset="45%" stop-color="#c60077"/><stop offset="100%" stop-color="#e64fb0"/></radialGradient>
<radialGradient id="wt-red" cx="12" cy="12" r="10" gradientUnits="userSpaceOnUse"><stop offset="0%" stop-color="#6e0000"/><stop offset="45%" stop-color="#bf0c0c"/><stop offset="100%" stop-color="#e44040"/></radialGradient>
<radialGradient id="wt-orange" cx="12" cy="12" r="10" gradientUnits="userSpaceOnUse"><stop offset="0%" stop-color="#7a1c00"/><stop offset="45%" stop-color="#dd4700"/><stop offset="100%" stop-color="#f2842f"/></radialGradient>
<radialGradient id="wt-yellow" cx="12" cy="12" r="10" gradientUnits="userSpaceOnUse"><stop offset="0%" stop-color="#606000"/><stop offset="45%" stop-color="#aaaa00"/><stop offset="100%" stop-color="#dede30"/></radialGradient>
<clipPath id="wt-pie"><circle cx="12" cy="12" r="10"/></clipPath>
</defs>
<circle cx="12" cy="12" r="11" fill="url(#wt-ring)" transform="matrix(1.3673052,0,0,1.3673052,-4.4526777,-4.7886152)"/>
<circle cx="11.954985" cy="11.619051" r="14.083244" fill="#111122"/>
<g clip-path="url(#wt-pie)" transform="matrix(1.3673052,0,0,1.3673052,-4.4526777,-4.7886152)">
<path d="M12 12 L12 2 A10 10 0 0 1 19.071 4.929 Z" fill="url(#wt-green)"/>
<path d="M12 12 L19.071 4.929 A10 10 0 0 1 22 12 Z" fill="url(#wt-cyan)"/>
<path d="M12 12 L22 12 A10 10 0 0 1 19.071 19.071 Z" fill="url(#wt-blue)"/>
<path d="M12 12 L19.071 19.071 A10 10 0 0 1 12 22 Z" fill="url(#wt-purple)"/>
<path d="M12 12 L12 22 A10 10 0 0 1 4.929 19.071 Z" fill="url(#wt-pink)"/>
<path d="M12 12 L4.929 19.071 A10 10 0 0 1 2 12 Z" fill="url(#wt-red)"/>
<path d="M12 12 L2 12 A10 10 0 0 1 4.929 4.929 Z" fill="url(#wt-orange)"/>
<path d="M12 12 L4.929 4.929 A10 10 0 0 1 12 2 Z" fill="url(#wt-yellow)"/>
<g stroke="#111122" stroke-width="0.5" stroke-linecap="square">
<line x1="12" y1="12" x2="12" y2="2"/><line x1="12" y1="12" x2="19.071" y2="4.929"/><line x1="12" y1="12" x2="22" y2="12"/><line x1="12" y1="12" x2="19.071" y2="19.071"/><line x1="12" y1="12" x2="12" y2="22"/><line x1="12" y1="12" x2="4.929" y2="19.071"/><line x1="12" y1="12" x2="2" y2="12"/><line x1="12" y1="12" x2="4.929" y2="4.929"/>
</g>
</g>
<circle cx="11.954985" cy="11.619051" r="13.673053" fill="url(#wt-gloss1)"/>
<circle cx="11.954985" cy="11.619051" r="13.673053" fill="none" stroke="#111122" stroke-width="0.683653"/>
<path d="M12 12 L12 2 A10 10 0 0 1 19.071 4.929 Z" fill="#0a0a18" transform="matrix(1.3673052,0,0,1.3673052,-4.4526777,-4.7886152)"/>
<g transform="matrix(1.3673052,0,0,1.3673052,-3.68731,-6.63638)">
<path d="M12 12 L12 2 A10 10 0 0 1 19.071 4.929 Z" fill="url(#wt-green)"/>
<path d="M12 12 L12 2 A10 10 0 0 1 19.071 4.929 Z" fill="none" stroke="#111122" stroke-width="0.5" stroke-linejoin="round"/>
</g>
<path d="M 4.5,9 Q 4,9 4,9.5 l 3.5,9 q 0.3,0.7 1,0.7 h 1.3 q 0.7,0 1,-0.7 l 1.2,-3 1.2,3 q 0.3,0.7 1,0.7 h 1.3 q 0.7,0 1,-0.7 L 20,9.5 Q 20,9 19.5,9 h -1.3 q -0.7,0 -1,0.8 l -2.7,7 L 12,11.5 9.5,16.8 6.8,9.8 Q 6.5,9 5.8,9 Z" fill="#0d1a40" stroke="#0d1a40" stroke-width="2" stroke-linejoin="round" stroke-linecap="round" transform="matrix(1.3673052,0,0,1.3673052,-4.4526777,-4.7886152)"/>
<path d="m 1.700196,7.517132 q -0.6836527,0 -0.6836527,0.683653 l 4.7855682,12.305737 q 0.410192,0.957114 1.367305,0.957114 h 1.777497 q 0.957114,0 1.3673045,-0.957114 l 1.640767,-4.101916 1.640766,4.101916 q 0.410192,0.957114 1.367305,0.957114 h 1.777498 q 0.957113,0 1.367305,-0.957114 L 22.893427,8.200785 q 0,-0.683653 -0.683653,-0.683653 h -1.777497 q -0.957113,0 -1.367305,1.093845 L 15.373248,18.182103 11.954985,10.935385 8.5367225,18.182103 4.8449984,8.610977 Q 4.4348061,7.517132 3.4776926,7.517132 Z" fill="url(#wt-w)"/>
</svg>
